<?xml version="1.0" encoding="utf-8"?>
<!-- Generator: Adobe Illustrator 16.0.4, SVG Export Plug-In . SVG Version: 6.00 Build 0)  -->
<!DOCTYPE svg PUBLIC "-//W3C//DTD SVG 1.1//EN" "http://www.w3.org/Graphics/SVG/1.1/DTD/svg11.dtd">
<svg version="1.1" id="Layer_1" xmlns="http://www.w3.org/2000/svg" xmlns:xlink="http://www.w3.org/1999/xlink" x="0px" y="0px"
	 width="100px" height="100px" viewBox="-49.5 350.5 100 100" enable-background="new -49.5 350.5 100 100" xml:space="preserve">
<rect id="bg" x="-49.5" y="350.5" display="none" fill="#222222" width="100" height="100"/>
<g id="white">
	<path fill="#FFFFFF" d="M46.479,404.248c-0.833-1.099-1.992-1.729-3.18-1.729l-0.893,0.009c-0.874,0-1.747-0.021-2.62-0.039
		l-1.508-0.03c-0.852,0.164-1.491-0.205-1.738-0.967l-3.337-20.436l-32.642-9.358l-20.848,1.924
		c-3.84,0.933-9.801,3.164-10.028,4.936c-0.235,1.828-1.027,9.766-2.173,21.774l-0.108,1.069l-0.582,0.134
		c-0.365,0.084-0.755,0.095-1.219,0.017c-3.398,0.124-6.464,1.307-9.371,3.611c-2.751,2.181-3.117,4.438-1.152,7.105
		c2.512,3.401,4.884,6.614,9.371,6.614l0.245-0.002c0.001,0,0.002,0,0.004,0c2.08,0,3.361,1.306,3.381,3.326
		c0.008,0.871,0.209,1.822,0.371,2.585c1.45,6.84,4.676,12.554,9.588,16.983l0.471,0.424c2.262,2.047,4.602,3.557,7.469,4.562
		c11.678,4.098,22.589,3.258,32.524-2.502c4.101-2.376,7.011-4.863,8.648-8.589c2.059-4.677,4.001-9.431,5.662-13.519
		c0.267-0.662,0.716-1.774,2.278-1.774l0.413,0.008c0.793,0,1.372-0.113,1.719-0.336l1.066-0.681
		c2.339-1.49,4.758-3.026,6.832-4.853c0.849-0.748,1.352-2.123,1.84-3.453l0.317-0.848c0.083-0.216,0.05-0.599,0.019-0.97
		c-0.039-0.466-0.085-0.994,0.049-1.519C47.624,406.65,47.292,405.318,46.479,404.248z"/>
	<path fill="#FFFFFF" d="M-34.384,400.161c-0.604-5.328-0.181-10.628,0.954-15.831c0.875-4.009,1.86-8.112,4.754-11.29
		c1.271-1.395,2.67-2.767,4.255-3.758c1.292-0.807,1.958-1.167,2.68-1.167c0.694,0,1.441,0.333,2.846,0.922
		c-0.515-1.654-1.029-3.154-1.433-4.687c-0.117-0.447,0.089-0.979,0.145-1.473c0.508,0.075,1.197-0.031,1.493,0.26
		c0.845,0.83,1.531,1.824,2.238,2.7c1.412-2.403,2.76-4.957,4.358-7.346c1.612-2.413,3.94-4.147,6.096-6.024
		c0.111,0.089,0.222,0.176,0.333,0.265c-0.156,0.41-0.313,0.821-0.528,1.388c1.979-0.203,3.548-1.669,5.562-1.668
		c0.328,0,0.667,0.039,1.022,0.128c-1.671,1.718-3.243,3.335-4.815,4.95c0.071,0.171,0.141,0.342,0.211,0.515
		c1.112-0.085,2.248-0.057,3.333-0.273c3.763-0.756,7.416-2.135,11.314-2.135c0.178,0,0.356,0.004,0.535,0.01
		c0.51,0.017,1.015,0.119,1.521,0.182c0.041,0.183,0.083,0.365,0.126,0.547c-0.846,0.371-1.69,0.74-2.722,1.193
		c5.723,3.704,11.804,5.981,18.8,6.164c-0.93,1.235-0.93,1.235-4.618,1.696c6.635,4.367,13.739,7.952,17.084,15.659
		c-0.807-0.33-1.606-0.681-2.423-0.982c-0.333-0.124-0.654-0.188-0.956-0.188c-0.677,0-1.255,0.326-1.648,1.041
		c-0.516,0.941-0.542,1.849,0.33,2.743c1.392,1.422,1.275,1.722,0.094,3.437c-0.372,0.542-0.439,1.425-0.372,2.124
		c0.22,2.178,0.461,4.355,0.708,6.53l0.869,5.241l0.105-0.008l1.179,0.023c0,0-0.316-2.692-0.606-5.17l-0.049-0.297
		c-0.122-1.074-0.255-2.259-0.389-3.495c-0.007-0.064-0.014-0.122-0.019-0.165l0,0c-0.099-0.918-0.198-1.862-0.294-2.812
		c-0.057-0.579,0.047-1.015,0.115-1.119c0.63-0.914,1.176-1.707,1.182-2.672c0.006-1.103-0.678-1.895-1.443-2.676
		c-0.289-0.296-0.365-0.445-0.084-0.956c0.141-0.257,0.229-0.257,0.322-0.257c0.081,0,0.221,0.016,0.43,0.094
		c0.538,0.198,1.064,0.418,1.622,0.65c0.252,0.105,0.504,0.211,0.756,0.313l3.436,1.401l-1.477-3.404
		c-2.987-6.881-8.77-10.663-14.431-14.26c0.712-0.295,1.154-0.744,1.785-1.583l1.767-2.345l-2.936-0.077
		c-5.355-0.14-10.47-1.596-15.559-4.439c0.016-0.007,0.032-0.014,0.049-0.021l1.158-0.509l1.96-0.866l-1.96-1.79l-0.646-0.137
		l-1.061-0.13c-0.149-0.019-0.298-0.042-0.447-0.063c-0.363-0.054-0.774-0.115-1.207-0.13c-0.196-0.006-0.392-0.01-0.586-0.01
		c-2.875,0-5.58,0.689-8.196,1.355c-1.093,0.278-2.223,0.565-3.328,0.791l1.741-1.789l0.823-0.847l1.83-1.881l-2.544-0.642
		c-0.458-0.115-0.927-0.173-1.392-0.173c-1.396,0-2.562,0.514-3.591,0.968c-0.012,0.006-0.024,0.012-0.037,0.017l-0.453-0.367
		c-0.079-0.063-0.158-0.125-0.237-0.188l-0.106-0.084l-0.985-0.784l-0.95,0.827c-0.387,0.336-0.791,0.678-1.181,1.008
		c-1.841,1.558-3.745,3.169-5.18,5.316c-1.142,1.707-2.156,3.489-3.136,5.212c-0.053,0.093-0.106,0.188-0.159,0.28
		c-0.304-0.369-0.627-0.735-0.985-1.086c-0.624-0.613-1.448-0.64-1.993-0.657c-0.125-0.004-0.268-0.008-0.341-0.019l-1.546-0.227
		l-0.175,1.553c-0.011,0.089-0.035,0.213-0.062,0.343c-0.089,0.438-0.211,1.036-0.042,1.683c0.169,0.641,0.354,1.268,0.548,1.9
		c-0.165-0.021-0.33-0.032-0.498-0.032c-1.162,0-2.091,0.529-3.482,1.398c-1.869,1.168-3.425,2.763-4.571,4.021
		c-3.038,3.337-4.113,7.403-5.113,11.987c-0.108,0.496-0.208,0.99-0.302,1.483c-1.347,8.183-0.47,14.785-0.47,14.785
		C-35.251,400.223-34.819,400.184-34.384,400.161z"/>
</g>
<g id="color">
	<path class="logoColor" fill="#222222" d="M15.045,409.101c-1.427,0.482-2.464,1.391-2.857,2.858c-0.404,1.5-0.802,3.018-0.993,4.554
		c-0.348,2.818-0.215,5.628,0.892,8.296c0.871,2.091,2.471,2.658,4.517,1.674c1.215-0.585,1.975-1.518,2.151-2.881
		c0.287-2.231,0.573-4.46,0.914-7.111c-0.244-1.667-0.364-3.729-0.882-5.688C18.328,409.069,16.765,408.516,15.045,409.101z"/>
	<path class="logoColor" fill="#222222" d="M-16.288,409.254c-1.637,0.375-2.859,1.659-3.092,3.312c-0.234,1.645-0.528,3.287-0.613,4.941
		c-0.141,2.751-0.617,5.606,0.991,8.095c0.474,0.733,1.477,1.4,2.333,1.542c1.101,0.188,2.031-0.485,2.674-1.574
		c1.464-2.48,1.522-5.17,1.687-7.943c-0.304-2.229-0.492-4.484-0.949-6.684C-13.569,409.448-14.79,408.907-16.288,409.254z"/>
	<path class="logoColor" fill="#222222" d="M3.696,436.211c-3.376,0.838-6.754,1.013-10.135,0.071c-0.867-0.243-2.041-0.801-2.37,0.266
		c-0.374,1.214,1.012,1.462,1.875,1.616c4.013,0.716,8.008,0.648,11.901-0.714c0.604-0.213,1.116-0.688,1.67-1.045
		c-0.087-0.222-0.173-0.441-0.262-0.663C5.482,435.896,4.575,435.994,3.696,436.211z"/>
	<path class="logoColor" fill="#222222" d="M11.232,405.043c0.765-0.045,1.46,0.063,2.041-0.148c2.671-0.977,5.375-1.431,8.224-1.114
		c0.519,0.059,1.097-0.396,1.946-0.732C20.033,400.58,12.305,401.902,11.232,405.043z"/>
	<path class="logoColor" fill="#222222" d="M-11.272,403.592c-1.892-0.611-3.854-1.22-5.82-1.334c-1.59-0.093-3.222,0.525-4.462,2.478
		c0.904,0,1.518,0.171,1.963-0.03c1.486-0.667,2.917-0.533,4.392-0.037c1.047,0.352,2.1,0.732,3.184,0.914
		c0.603,0.102,1.269-0.177,1.907-0.283C-10.49,404.707-10.754,403.759-11.272,403.592z"/>
	<path class="logoColor" fill="#222222" d="M47.255,403.476c-0.555-0.718-1.227-1.278-1.964-1.668c-0.752-0.453-1.636-0.72-2.464-0.72h-0.002
		l-0.799,0.007c-0.852,0-1.707-0.02-2.559-0.038l-1.598-0.03l-0.105,0.008l-0.869-5.242c-0.247-2.175-0.488-4.353-0.708-6.53
		c-0.067-0.699,0-1.581,0.373-2.124c1.181-1.715,1.297-2.015-0.094-3.436c-0.872-0.895-0.847-1.802-0.331-2.743
		c0.568-1.034,1.524-1.254,2.604-0.854c0.817,0.303,1.616,0.652,2.424,0.982c-3.346-7.706-10.449-11.292-17.085-15.659
		c3.688-0.461,3.688-0.461,4.619-1.696c-6.997-0.182-13.078-2.46-18.8-6.164c1.031-0.453,1.875-0.822,2.722-1.193
		c-0.044-0.182-0.085-0.363-0.126-0.547c-0.507-0.062-1.011-0.164-1.521-0.182c-4.1-0.136-7.914,1.335-11.849,2.125
		c-1.085,0.218-2.222,0.188-3.333,0.273c-0.071-0.172-0.141-0.344-0.211-0.515c1.571-1.615,3.144-3.231,4.814-4.95
		c-2.535-0.638-4.282,1.305-6.583,1.54c0.215-0.566,0.372-0.978,0.528-1.387c-0.111-0.09-0.223-0.177-0.333-0.266
		c-2.156,1.877-4.484,3.611-6.097,6.024c-1.598,2.389-2.946,4.942-4.358,7.347c-0.707-0.877-1.393-1.871-2.238-2.701
		c-0.296-0.291-0.985-0.185-1.494-0.259c-0.056,0.493-0.261,1.024-0.145,1.472c0.403,1.532,0.918,3.033,1.433,4.688
		c-2.865-1.203-2.992-1.338-5.525,0.244c-1.585,0.992-2.984,2.363-4.255,3.758c-2.894,3.179-3.879,7.281-4.754,11.291
		c-1.135,5.202-1.558,10.503-0.954,15.83c-3.584,0.182-6.946,1.473-9.995,3.847c-3.454,2.69-3.956,5.877-1.449,9.216
		c2.502,3.327,5.337,7.098,10.609,7.098l0.359-0.005c1.039,0,1.571,0.538,1.582,1.598c0.009,0.938,0.188,1.846,0.404,2.849
		c1.513,7.007,4.884,12.866,10.021,17.413l0.465,0.413c2.363,2.098,4.807,4.266,7.961,5.354c4.987,1.718,9.892,2.588,14.576,2.588
		c6.611,0,13.006-1.732,19.009-5.148c4.377-2.489,7.493-5.755,9.262-9.709c2.049-4.569,3.98-9.207,5.629-13.195
		c0.29-0.702,0.33-0.702,0.789-0.7l0.348,0.005c1.119,0,1.965-0.191,2.586-0.582l2.695-1.778c1.825-1.137,3.665-2.339,5.261-3.822
		c2.091-1.944,2.362-4.646,2.479-5.801c0.01-0.101,0.022-0.223,0.029-0.278C48.599,408.073,48.397,404.956,47.255,403.476z
		 M46.75,409.175c-0.074,0.287-0.079,1.318-0.417,2.5c-0.269,0.92-0.744,1.928-1.618,2.741c-1.988,1.848-4.451,3.271-6.769,4.72
		l-1.056,0.663c-0.345,0.217-0.917,0.326-1.704,0.326l-0.409-0.006c-1.548,0-1.993,1.081-2.258,1.726
		c-1.645,3.978-3.57,8.603-5.609,13.152c-1.623,3.625-4.506,6.634-8.569,8.945c-9.845,5.603-20.656,6.42-32.228,2.435
		c-2.841-0.979-5.159-3.037-7.401-5.027l-0.466-0.413c-4.868-4.31-8.064-9.869-9.5-16.523c-0.16-0.742-0.36-1.668-0.367-2.515
		c-0.019-1.966-1.289-3.236-3.35-3.236c-0.001,0-0.002,0-0.004,0l-0.243,0.003c-4.446,0-6.797-3.127-9.286-6.437
		c-1.946-2.595-1.584-4.791,1.143-6.913c2.879-2.242,5.917-3.393,9.285-3.514c0.459,0.077,0.846,0.066,1.208-0.015l0.576-0.132
		l0.107-1.04c0.308-3.171,0.59-6.047,0.843-8.596c0.466-1.978,1.051-3.934,1.618-5.898c0.926-3.204,2.847-5.627,5.252-7.759
		c1.266-1.122,2.777-0.731,3.104,0.91c0.288,1.457,0.132,2.997,0.255,4.494c0.126,1.529,0.04,3.176,0.589,4.555
		c1.981,4.957,5.747,8.129,10.73,9.901c5.958,2.117,11.915,1.356,17.857-0.066c0.508-0.12,0.951-0.515,1.679-0.928
		c-0.585-0.216-0.809-0.362-1.04-0.375c-1.9-0.12-3.808-0.178-5.705-0.341c-0.492-0.043-0.954-0.392-1.43-0.601
		c0.051-0.158,0.107-0.319,0.16-0.48c3.757-1.36,7.684-1.937,11.644-2.218c5.523-0.393,11.056-0.61,16.582-0.952
		c0.611-0.038,1.202-0.402,2.077-0.712c-0.637-0.546-1.057-0.741-1.202-1.06c-0.317-0.698-0.728-1.489-0.634-2.181
		c0.052-0.403,1.048-1.016,1.53-0.942c0.531,0.08,1.053,0.776,1.404,1.317c0.485,0.744,0.953,1.559,1.169,2.407
		c0.148,0.583,0.291,1.167,0.434,1.751l1.48,8.9c0.246,0.741,0.878,1.101,1.723,0.94l1.494,0.029
		c0.866,0.019,1.731,0.039,2.597,0.039l0.885-0.008c1.172,0,2.314,0.607,3.138,1.667C46.858,405.463,47.027,408.121,46.75,409.175z"
		/>
</g>
</svg>
